<?xml version="1.0" encoding="iso-8859-1"?>
<!-- Generator: Adobe Illustrator 19.0.0, SVG Export Plug-In . SVG Version: 6.00 Build 0)  -->
<svg version="1.1" id="Layer_1" xmlns="http://www.w3.org/2000/svg" xmlns:xlink="http://www.w3.org/1999/xlink" x="0px" y="0px"
	 viewBox="0 0 496 496" style="enable-background:new 0 0 496 496;" xml:space="preserve">
<path style="fill:#626A84;" d="M387.228,298.4c-0.288-0.56-1.352-1.112-1.68-1.648c-12.016-15.344-25.672-28.504-25.672-58.056
	v-98.56c0-41.6,4.896-79.936-25.744-108.384C308.972,8.792,271.124,0,240.476,0h-13.152C171.532,3.24,112.452,27.344,99.252,96.336
	c-2.168,8.792,4.416,12.056,8.776,13.144l61.312,7.664c6.56-1.104,9.864-7.968,10.944-13.392C185.74,79.648,204.868,64,227.332,64
	h4.4c13.152,0,26.112,6.864,33.752,17.832c8.744,13.128,6.392,32.048,6.392,47.392v8.752c-8,1.08-29.4,2.16-45.816,4.32
	c-25.168,3.336-49.696,7.704-70.48,17.568c-40.496,16.432-67.56,51.472-67.56,102.912c0,13.224,1.976,25.064,5.2,35.624
	c12.512,41.008,47.376,61.84,89.2,61.84c17.504,0,31.76-2.216,44.864-5.448c20.84-6.6,38.336-18.648,59.128-40.568
	c12.04,16.424,15.368,24.128,36.144,41.64c5.496,2.16,10.968,2.16,15.312-1.072c13.16-10.984,36.168-30.704,48.176-41.64
	C390.996,309.208,389.796,303.472,387.228,298.4z M226.06,192.68c14.216-3.264,29.816-4.376,45.816-4.376v13.16
	c0,25.176,2.352,44.88-10.768,66.792c-7.664,15.32-20.192,25.176-34.408,28.496c-2.168,0-5.144,1.088-8.44,1.088
	c-24.056,0-38.76-18.608-38.76-45.984C179.5,216.784,199.804,200.392,226.06,192.68z"/>
<path style="fill:#4B506D;" d="M99.26,96.336c-2.168,8.792,4.416,12.056,8.776,13.144l61.312,7.664
	c6.56-1.104,9.864-7.968,10.944-13.392C185.74,79.648,204.412,64,227.332,64h4.4c13.152,0,26.112,6.864,33.752,17.832
	c8.744,13.128,6.392,32.048,6.392,47.392v8.752c-8,1.08-29.4,2.16-45.816,4.32c-25.168,3.336-49.696,7.704-70.48,17.568
	c-40.496,16.432-67.56,51.472-67.56,102.912c0,13.224,1.976,25.064,5.2,35.624c12.512,41.008,47.376,61.84,89.2,61.84
	c17.504,0,31.76-2.216,44.864-5.448c20.84-6.6,38.336-18.648,59.128-40.568c12.04,16.424,15.368,24.128,36.144,41.64
	c5.496,2.16,10.968,2.16,15.312-1.072c13.16-10.984,36.168-30.704,48.176-41.64c4.944-3.944,3.744-9.688,1.176-14.76
	c-0.288-0.56-1.352-1.112-1.68-1.648c-12.008-15.336-25.664-28.496-25.664-58.048v-98.56c0-41.6,4.896-79.936-25.744-108.384
	 M226.06,192.68c14.216-3.264,29.816-4.376,45.816-4.376v13.16c0,25.176,2.352,44.88-10.768,66.792
	c-7.664,15.32-20.192,25.176-34.408,28.496c-2.168,0-5.144,1.088-8.44,1.088c-24.056,0-38.76-18.608-38.76-45.984
	C179.5,216.784,199.804,200.392,226.06,192.68z"/>
<path style="fill:#EA7B0C;" d="M442.748,384.144c4.448-0.032,8.848,0.288,11.6,0.864c1.36,0.304,2.6,0.656,3.144,0.936
	c0.216,0.064,0.464,0.152,0.56,0.208c0.112,0.376,0.344,1.368,0.32,2.744c0.048,5.24-2.136,14.992-5.208,24.504
	c-2.968,9.504-6.584,19.048-8.968,25.384c-0.576,1.456-0.96,3.064-0.96,4.816c-0.048,2.536,1,6.576,3.224,8.608
	c2.16,2.04,4.96,3.792,7.288,3.792h0.12c3.504,0,6.488-2.368,9.048-4.368c24.192-21.784,32.656-57.024,33-76.592l-0.04-3.592v-0.032
	c0-5.16-1.344-9.104-3.504-12.36l-0.248-0.336l-0.264-0.312c-2.184-2.4-4.296-3.296-6.568-4.288
	c-6.808-2.632-17.52-4.032-29.424-4.064c-4.816,0-8,0.312-16,0.896v33.224C439.876,384.168,442.1,384.144,442.748,384.144z"/>
<g>
	<path style="fill:#FA9826;" d="M424.372,396.752c-2.48-0.032-7.392,0.904-9.752,2c-2.656,1.048-5.184,2.584-7.752,3.656l-5,2.968
		l-6.2,2.624l0,0c0,0,1.48,0,0,0h42.856C436.252,404.248,430.868,396.752,424.372,396.752z"/>
	<path style="fill:#FA9826;" d="M438.524,408h-42.856c-51.888,24-106.144,34.544-156.448,35.624
		C189.332,443.656,139.412,432,97.196,408c-20.512-8-41.32-16.36-57.32-27.392c-8-3.272-13.472-6.56-19.4-9.848
		c-2.336-1.232-5.56-1.88-7.896-1.88c-3,0-6.496,1.144-8.736,3.24c-2.248,2.128-3.792,5.192-3.76,8.328
		c-0.032,4.04,2.056,7.776,5.128,10.192C68.044,445.248,136.884,495.944,229.54,496c1.8,0,3.616-0.056,5.448-0.088
		c58.936-1.312,125.56-21.24,177.304-53.752l0.312-0.184c6.776-4.064,13.536-8.688,19.92-13.784
		c3.968-2.944,6.704-9.504,6.704-14.304C439.188,412.488,438.9,416,438.524,408z"/>
	<path style="fill:#FA9826;" d="M428.436,352.944L428.436,352.944L428.436,352.944L428.436,352.944L428.436,352.944
		c-15.056,3.304-25.504,10.512-30.832,14.392c-3.328,2.48-6.512,5.784-6.648,10.824c-0.096,2.752,1.088,5.896,3.392,7.76
		c2.312,1.864,4.88,2.512,7.24,2.512c0.552,0,1.032-0.024,1.496-0.128l0.44-0.032l0.336-0.056
		c4.672-0.976,10.616-1.656,18.584-2.776c6.12-0.672,9.44-1.16,17.44-1.264v-33.224C439.876,351.416,432.556,352.04,428.436,352.944
		L428.436,352.944z"/>
</g>
<path style="fill:#2A2B35;" d="M387.228,298.4c-12.016-15.344-27.352-30.152-27.352-59.704v-88.864
	c-24,17.552-66.072,31.04-106.4,39.064c5.968-0.36,18.4-0.584,18.4-0.584v13.16c0,25.176,2.352,44.88-10.768,66.792
	c-7.664,15.32-20.192,25.176-34.408,28.496c-2.168,0-5.144,1.088-8.44,1.088c-24.056,0-38.128-18.608-38.128-45.984
	c0-32.976,16.88-49.312,40.904-57.56c-17.032,1.992-32.944,2.944-50.912,2.944c-23.768,0-47.504,4.784-69.552,11.328
	c-8.256,15.44-12.544,33.064-12.544,54.208c0,13.224,2.136,25.064,5.36,35.624c12.512,41.008,47.296,61.84,89.12,61.84
	c17.504,0,31.72-2.216,44.832-5.448c20.84-6.6,38.312-18.648,59.112-40.568c12.04,16.424,15.36,24.128,36.136,41.64
	c5.496,2.16,10.96,2.16,15.304-1.072c13.16-10.984,36.168-30.704,48.176-41.64C391.004,309.208,389.796,303.472,387.228,298.4
	C386.94,297.832,387.556,298.936,387.228,298.4z"/>
<path style="fill:#EA7B0C;" d="M438.524,408h-42.856c-51.888,24-117.552,59.856-167.864,60.952c-1.888,0.064,1.848,0,0,0
	c-49.888,0.032-88.384-6.984-130.6-26.528l-50.688-25.712c-9.272-3.424-18.568-8.104-27.512-14.304
	c59.16,49.832,124.608,93.488,210.488,93.528c1.8,0,3.64-0.024,5.48-0.056c58.936-1.312,125.568-21.224,177.312-53.736l0.312-0.176
	c6.776-4.064,13.536-8.688,19.92-13.784c3.968-2.936,6.712-10.144,6.712-14.936C439.188,411.84,438.524,408,438.524,408z"/>
<g>
</g>
<g>
</g>
<g>
</g>
<g>
</g>
<g>
</g>
<g>
</g>
<g>
</g>
<g>
</g>
<g>
</g>
<g>
</g>
<g>
</g>
<g>
</g>
<g>
</g>
<g>
</g>
<g>
</g>
</svg>
