<?xml version="1.0" encoding="iso-8859-1"?>
<!-- Generator: Adobe Illustrator 19.0.0, SVG Export Plug-In . SVG Version: 6.00 Build 0)  -->
<svg version="1.1" id="Layer_1" xmlns="http://www.w3.org/2000/svg" xmlns:xlink="http://www.w3.org/1999/xlink" x="0px" y="0px"
	 viewBox="0 0 504.136 504.136" style="enable-background:new 0 0 504.136 504.136;" xml:space="preserve">
<path style="fill:#EDC211;" d="M495.313,133.872l-75.904-57.496c-1.688-1.808-3.616-3.264-5.72-4.336l-51.144-39.016
	c-3.792-2.864-8.44-4.68-13.192-4.68H154.665c-4.768,0-9.416,1.816-13.208,4.688L8.673,133.744c-9.648,7.32-11.536,21.16-4.2,30.8
	l230.128,302.6c8.752,11.52,26.04,11.536,34.808,0.016L499.537,164.6C506.865,154.952,504.977,141.192,495.313,133.872z
	 M162.001,76.344h180.016l24.776,16.936l-32.08,22.84l-156.68-1.696l-39.576-21.848L162.001,76.344z M52.569,155.544l48.2-36.496
	l40.064,23.768l-46.032,68.24L52.569,155.544z M251.993,417.816L132.241,260.344h239.52L251.993,417.816z M143.913,220.344
	l39.592-60.616l147.064,2.136l41.296,58.48H143.913z M415.705,202.512l-43.496-60.592l30.96-22.936l48.248,36.56L415.705,202.512z"
	/>
<path style="fill:#E2A60E;" d="M495.313,133.872l-75.904-57.496c-1.688-1.808-3.616-3.264-5.72-4.336l-51.144-39.016
	c-3.792-2.864-8.44-4.68-13.192-4.68h-97.352v48h90.016l24.776,16.936l-31.648,22.84l-83.144-0.896v45.496l78.568,1.144
	l41.296,58.48H252.001v40h119.76l-119.76,157.472v1.904v56.008c8,0.256,13.256-2.536,17.832-8.552l229.904-302.568
	C507.081,154.96,504.977,141.192,495.313,133.872z M415.705,202.512l-43.496-60.592l30.96-22.936l48.248,36.56L415.705,202.512z"/>
<path style="fill:#F9E130;" d="M163.929,40.544l185.424-12.2H154.665c-4.768,0-9.416,1.816-13.208,4.688L8.673,133.744
	L150.729,45.04C154.513,42.168,159.169,40.544,163.929,40.544z"/>
<g>
</g>
<g>
</g>
<g>
</g>
<g>
</g>
<g>
</g>
<g>
</g>
<g>
</g>
<g>
</g>
<g>
</g>
<g>
</g>
<g>
</g>
<g>
</g>
<g>
</g>
<g>
</g>
<g>
</g>
</svg>
