<?xml version="1.0" encoding="iso-8859-1"?>
<!-- Generator: Adobe Illustrator 19.0.0, SVG Export Plug-In . SVG Version: 6.00 Build 0)  -->
<svg version="1.1" id="Layer_1" xmlns="http://www.w3.org/2000/svg" xmlns:xlink="http://www.w3.org/1999/xlink" x="0px" y="0px"
	 viewBox="0 0 496 496" style="enable-background:new 0 0 496 496;" xml:space="preserve">
<path style="fill:#F91D80;" d="M386.776,140.671c-60.424,0-109.304,48.248-109.304,107.696c0,59.496,48.88,107.76,109.304,107.76
	c60.384,0,109.224-48.264,109.224-107.76C496,188.919,447.16,140.671,386.776,140.671z"/>
<path style="fill:#C6056F;" d="M462.936,324.527c42.68-42.688,43.112-111.344,1.04-153.416
	c-42.048-42.04-110.696-41.616-153.392,1.08"/>
<path style="fill:#0063D1;" d="M109.184,140.671C48.84,140.671,0,188.919,0,248.367c0,59.496,48.84,107.76,109.184,107.76
	c60.432,0,109.312-48.264,109.312-107.76C218.496,188.919,169.616,140.671,109.184,140.671z"/>
<path style="fill:#F91D80;" d="M386.776,162.615c56.616,0,103.088,42.432,108.664,96.744c0.376-3.608,0.56-7.272,0.56-10.992
	c0-59.448-48.84-107.696-109.224-107.696c-60.424,0-109.304,48.248-109.304,107.696c0,3.72,0.192,7.384,0.552,10.992
	C283.608,205.047,330.112,162.615,386.776,162.615z"/>
<path style="fill:#0842B7;" d="M185.384,324.607c42.72-42.728,43.168-111.416,1.104-153.488
	c-42.04-42.04-110.736-41.576-153.448,1.136"/>
<path style="fill:#0063D1;" d="M109.184,162.615c56.656,0,103.168,42.432,108.744,96.744c0.384-3.608,0.568-7.272,0.568-10.992
	c0-59.448-48.88-107.696-109.312-107.696C48.84,140.671,0,188.919,0,248.367c0,3.72,0.184,7.384,0.552,10.992
	C6.144,205.047,52.608,162.615,109.184,162.615z"/>
<g>
</g>
<g>
</g>
<g>
</g>
<g>
</g>
<g>
</g>
<g>
</g>
<g>
</g>
<g>
</g>
<g>
</g>
<g>
</g>
<g>
</g>
<g>
</g>
<g>
</g>
<g>
</g>
<g>
</g>
</svg>
