<?xml version="1.0" encoding="iso-8859-1"?>
<!-- Generator: Adobe Illustrator 19.0.0, SVG Export Plug-In . SVG Version: 6.00 Build 0)  -->
<svg version="1.1" id="Layer_1" xmlns="http://www.w3.org/2000/svg" xmlns:xlink="http://www.w3.org/1999/xlink" x="0px" y="0px"
	 viewBox="0 0 496.008 496.008" style="enable-background:new 0 0 496.008 496.008;" xml:space="preserve">
<g>
	<path style="fill:#D80B0B;" d="M208.008,207.528v81.92c0,0,82.816-0.104,115.856-0.104
		c-17.888,54.336-44.896,83.928-113.392,83.928c-69.328,0-123.008-56.296-123.008-125.744c0-69.44,54.296-125.736,123.624-125.736
		c36.648,0,60.424,12.904,82.136,30.88c17.376-17.408,15.976-19.88,60.184-61.712c-37.528-34.216-87.384-55.088-142.144-55.088
		C94.568,35.872,0,130.632,0,247.528s94.592,212.608,211.288,212.608c174.4,0,217.04-156.608,202.912-252.608H208.008z"/>
	<polygon style="fill:#D80B0B;" points="448.008,111.528 448.008,63.528 416.008,63.528 416.008,111.528 368.008,111.528 
		368.008,143.528 416.008,143.528 416.008,191.528 448.008,191.528 448.008,143.528 496.008,143.528 496.008,111.528 	"/>
</g>
<g>
	<path style="fill:#C10606;" d="M42.128,120.704l62.824,62.816c21.248-36.904,60.392-61.728,106.344-61.728
		c36.648,0,60.32,12.904,82.024,30.88c17.376-17.408,15.928-19.88,60.136-61.712c-37.528-34.216-87.408-55.088-142.16-55.088
		C142.088,35.872,80.664,69.2,42.128,120.704z"/>
	<path style="fill:#C10606;" d="M208.008,207.528l0.344,80c0,0,82.472,0,115.512,0c-10.28,32-22.416,55.808-45.096,69.768
		l61.368,62.328c66.56-52.064,83.672-148.096,74.064-212.096H208.008z"/>
</g>
<path style="fill:#A80505;" d="M293.32,152.68c17.376-17.408,15.928-19.88,60.136-61.712c-8.304-7.568-17.24-14.44-26.664-20.616
	l-62.944,62.936C274.552,138.488,284.152,145.08,293.32,152.68z"/>
<path style="fill:#F24033;" d="M340.272,304.504L339,303.488c0.024-0.08,0.056,0.04,0.08,0.04c-0.104,0-0.2,0-0.304,0l-15.536-14.08
	l-5.032,14.032c0,0,0.032,0,0,0c-20.44,46.912-45.256,69.792-107.736,69.792c-24.48,0-46.16-7-65.136-19.144
	c21.824,20.392,50.968,34.088,83.528,32.872c57.488-2.152,87.12-24.104,104.64-68.576L340.272,304.504z"/>
<path style="fill:#A80505;" d="M208.008,289.448c0,0,16-0.016,112-0.024v-81.896h-112V289.448z"/>
<path style="fill:#F24033;" d="M17.576,261.192c0-116.896,94.6-211.656,211.288-211.656c44.648,0,86.04,13.88,120.144,37.544
	c-36.984-31.888-85.08-51.208-137.712-51.208C94.6,35.872,0.008,130.632,0.008,247.528c0,72.064,35.984,135.688,90.92,173.912
	C46.032,382.624,17.576,325.256,17.576,261.192z"/>
<polygon style="fill:#C10606;" points="448.008,112.6 413.496,143.528 416.008,143.528 416.008,191.528 448.008,191.528 
	448.008,143.528 496.008,143.528 496.008,111.528 448.008,111.528 "/>
<g>
</g>
<g>
</g>
<g>
</g>
<g>
</g>
<g>
</g>
<g>
</g>
<g>
</g>
<g>
</g>
<g>
</g>
<g>
</g>
<g>
</g>
<g>
</g>
<g>
</g>
<g>
</g>
<g>
</g>
</svg>
