<?xml version="1.0" encoding="iso-8859-1"?>
<!-- Generator: Adobe Illustrator 19.0.0, SVG Export Plug-In . SVG Version: 6.00 Build 0)  -->
<svg version="1.1" id="Layer_1" xmlns="http://www.w3.org/2000/svg" xmlns:xlink="http://www.w3.org/1999/xlink" x="0px" y="0px"
	 viewBox="0 0 453.118 453.118" style="enable-background:new 0 0 453.118 453.118;" xml:space="preserve">
<path style="fill:#81B650;" d="M371.982,382.453c0.816,1.008,1.816,1.296,2.816,1.328
	C373.79,383.749,372.79,383.461,371.982,382.453z"/>
<path style="fill:#B5E879;" d="M189.374,264.421c-0.28,37.096-14.656,68.296-41.704,93.592c-1.408,1.312-2.784,2.688-4.16,4.032
	c-14,10.784-29.168,19.296-46.36,23.96c-7.312,1.992-14.768,3.136-22.216,4.224c-5.768,0.856-9.512-2.36-11.672-7.576
	c0.032-16.096,0.048-32.168,0.064-48.264c0.28-4.736-1.608-9.816,2.16-13.984c1.872-2.072,4-3.496,6.856-4.208
	c8.392-2.12,16.904-3.816,24.544-8.4c14.064-8.432,22.832-20.608,26.704-36.472c0.608-2.496,1.184-5.016,1.768-7.528
	c-33.8-0.064-67.576-0.128-101.344-0.16c-2.92-0.016-5.816-0.12-8.672-0.904c-8.592-2.392-15.184-10.28-15.216-19.2
	c-0.048-51.296,0.048-102.6,0.096-153.904c-0.72-8.184,0-15.872,6.856-21.736c3.72-3.168,7.832-5.08,12.736-5.08
	c49.672-0.016,99.344,0.016,149.016-0.032c13.144-0.024,20.544,4.096,20.544,26.84C189.374,93.405,189.79,208.533,189.374,264.421z"
	/>
<path style="fill:#99CE61;" d="M168.822,62.781c13.144-0.024,20.544,4.096,20.544,26.84c0,3.784,0.424,118.904,0,174.8
	c-0.28,37.096-14.656,68.296-41.704,93.592c-1.408,1.312-2.784,2.688-4.16,4.032c-14,10.784-29.168,19.296-46.36,23.96
	c-7.312,1.992-14.768,3.136-22.216,4.224c-5.768,0.856-9.512-2.36-11.672-7.576c0.032-16.096,0.048-32.168,0.064-48.264
	c0.28-4.736-1.608-9.816,2.16-13.984c1.872-2.072,4-3.496,6.856-4.208c8.392-2.12,16.904-3.816,24.544-8.4
	c14.064-8.432,22.832-20.608,26.704-36.472c0.608-2.496,1.184-5.016,1.768-7.528c-33.8-0.064-67.576-0.128-101.344-0.16
	c-2.92-0.016-5.816-0.12-8.672-0.904c-8.592-2.392-15.184-10.28-15.216-19.2"/>
<path style="fill:#81B650;" d="M78.774,262.829c-24.968,0-49.28-1.968-72.72-5.608c2.544,2.56,5.728,4.528,9.28,5.512
	c2.856,0.792,5.752,0.888,8.672,0.904c33.768,0.032,67.544,0.096,101.344,0.16c-0.576,2.512-1.16,5.032-1.768,7.528
	c-3.872,15.856-12.64,28.04-26.704,36.472c-7.64,4.584-16.16,6.28-24.544,8.4c-2.856,0.72-4.984,2.144-6.856,4.208
	c-3.768,4.168-1.872,9.248-2.16,13.984c-0.016,16.096-0.032,32.168-0.064,48.264c2.16,5.216,5.904,8.44,11.672,7.576
	c7.456-1.096,14.904-2.232,22.216-4.224c17.184-4.664,32.36-13.176,46.36-23.96c1.376-1.344,2.752-2.72,4.16-4.032
	c27.048-25.296,41.424-56.496,41.704-93.592c0.032-4.544,0.064-9.528,0.08-14.776C154.758,258.149,117.55,262.829,78.774,262.829z"
	/>
<path style="fill:#B5E879;" d="M452.654,264.677c-0.032,50.024-31.248,96.84-77.28,116.048c-1.16,0.512-2.248,1.152-3.392,1.736
	c0.816,1.008,1.816,1.296,2.816,1.328c-1-0.032-2-0.32-2.816-1.328c0,0-1.264,0.344-1.904,0.52c-0.344,0.192-0.72,0.416-1.08,0.6
	c-9.608,2.744-19.312,5-29.232,6.456c-7.544,1.12-13.264-3.168-13.36-10.816c-0.08-5.352-0.128-10.72-0.168-16.08
	c0.112-9.592,0.184-19.184,0.296-28.784c-0.048-2.112-0.128-4.216-0.128-6.312c0.016-7.376,2.84-10.496,11.968-12.576
	c11.56-2.656,22.456-6.416,31.44-14.8c10.816-10.088,16.264-22.664,18.752-36.88c-31.2-0.064-62.408-0.12-93.624-0.168
	c-3.392-0.008-6.8,0.04-10.184-0.024c-12.752-0.208-21.472-9.056-21.472-21.92c0.016-50.672,0.096-101.32,0.112-151.992
	c0-0.496-0.032-0.976-0.08-1.464c-0.968-9.488,1.736-17.248,10.128-22.512c3.264-2.064,6.8-2.904,10.544-2.904
	c49.36-0.032,98.688,0.016,148.048-0.048c13.144-0.016,20.624,11.632,20.624,26.928C452.654,96.725,452.702,208.677,452.654,264.677
	z"/>
<path style="fill:#99CE61;" d="M321.606,62.797c49.36-0.032,61.064,0.016,110.424-0.048c13.144-0.016,20.624,11.632,20.624,26.928
	c0,7.04,0.048,118.992,0,174.992c-0.032,50.024-31.248,96.84-77.28,116.048c-1.16,0.512-2.248,1.152-3.392,1.736
	c0.816,1.008,1.816,1.296,2.816,1.328c-1-0.032-2-0.32-2.816-1.328c0,0-1.264,0.344-1.904,0.52c-0.344,0.192-0.72,0.416-1.08,0.6
	c-9.608,2.744-19.312,5-29.232,6.456c-7.544,1.12-13.264-3.168-13.36-10.816c-0.08-5.352-0.128-10.72-0.168-16.08
	c0.112-9.592,0.184-19.184,0.296-28.784c-0.048-2.112-0.128-4.216-0.128-6.312c0.016-7.376,2.84-10.496,11.968-12.576
	c11.56-2.656,22.456-6.416,31.44-14.8c10.816-10.088,16.264-22.664,18.752-36.88c-31.2-0.064-62.408-0.12-93.624-0.168
	c-3.392-0.008-6.8,0.04-10.184-0.024c-12.752-0.208-21.472-9.056-21.472-21.92"/>
<path style="fill:#81B650;" d="M453.118,90.005c0.048-15.296-7.392-26.968-20.528-27c-6.456-0.008-12.888-0.04-19.344-0.056
	c-16.184,67.424-72.032,125.144-149.952,160.776c-0.016,5.872-0.048,11.76-0.064,17.632c-0.048,12.864,8.64,21.744,21.392,21.992
	c3.392,0.08,6.8,0.04,10.184,0.064c31.216,0.16,62.424,0.32,93.624,0.488c-2.528,14.216-8.032,26.776-18.872,36.832
	c-9.016,8.344-19.92,12.064-31.496,14.688c-9.136,2.048-11.976,5.16-12.008,12.528c-0.016,2.096,0.064,4.2,0.096,6.312
	c-0.144,9.592-0.248,19.184-0.392,28.784c0.032,5.36,0.064,10.728,0.112,16.08c0.08,7.64,5.784,11.952,13.328,10.856
	c9.928-1.424,19.64-3.64,29.256-6.36c0.368-0.184,0.744-0.4,1.088-0.592c0.64-0.168,1.904-0.512,1.904-0.512
	c1.144-0.576,2.232-1.208,3.392-1.72c46.096-19.048,77.488-65.768,77.68-115.784C452.758,209.005,453.102,97.053,453.118,90.005z"/>
<g>
</g>
<g>
</g>
<g>
</g>
<g>
</g>
<g>
</g>
<g>
</g>
<g>
</g>
<g>
</g>
<g>
</g>
<g>
</g>
<g>
</g>
<g>
</g>
<g>
</g>
<g>
</g>
<g>
</g>
</svg>
