<?xml version="1.0" encoding="iso-8859-1"?>
<!-- Generator: Adobe Illustrator 19.0.0, SVG Export Plug-In . SVG Version: 6.00 Build 0)  -->
<svg version="1.1" id="Layer_1" xmlns="http://www.w3.org/2000/svg" xmlns:xlink="http://www.w3.org/1999/xlink" x="0px" y="0px"
	 viewBox="0 0 478 478" style="enable-background:new 0 0 478 478;" xml:space="preserve">
<path style="fill:#F92E64;" d="M239,0C107.016,0,0,107.016,0,239s107.016,239,239,239s239-107.016,239-239S370.984,0,239,0z
	 M160.312,110.216c13.92,0,25.608,10.92,25.608,25.224c0,14.328-11.688,25.248-25.608,25.248c-13.952,0-25.608-10.92-25.608-25.248
	C134.704,121.144,146.36,110.216,160.312,110.216z M331.656,351.64c-26,0-38.424-15.432-38.424-36.528
	c0-6.024,0.752-12.432,2.64-18.832l12.424-44.448c1.512-4.888,1.872-9.4,1.872-13.544c0-14.32-8.64-22.976-22.576-22.976
	c-17.72,0-29.392,13.616-35.408,38.096L228.08,351h-42.184l7.576-31.304c-12.408,20.376-29.624,32.536-50.856,32.536
	c-25.624,0-37.672-14.984-37.672-37.2c0-5.656,0.752-13.856,2.264-20.264l19.2-79.768H96.656l9.032-32h71.56L149,295.56
	c-1.872,7.168-2.64,13.36-2.64,17.504c0,7.16,3.528,9.376,9.048,10.632c3.36,0.752,30.128-0.896,44.704-33.28L218.672,215h-30.144
	l9.048-32h64.392l-8.28,38.368c11.296-21.096,33.904-40.888,56.128-40.888c23.736,0,43.312,17.032,43.312,49.424
	c0,8.28-1.144,17.36-4.16,27.528l-12.048,43.336c-1.128,4.528-1.888,8.296-1.888,11.696c0,7.52,3.016,11.296,8.672,11.296
	c5.64,0,12.816-4.144,21.096-27.112l16.56,6.408C371.576,337.336,353.872,351.64,331.656,351.64z"/>
<g>
	<path style="fill:#E51757;" d="M408,70c-93.328-93.328-244.672-93.328-338,0l64.784,64.768c0.36-13.96,11.8-24.544,25.528-24.544
		c13.92,0,25.608,10.92,25.608,25.224c0,14.2-11.504,25.024-25.248,25.208l34.64,29.904l2.264-7.56h64.392l-8.28,38.368
		c11.296-21.096,33.904-40.888,56.128-40.888c23.736,0,43.312,17.032,43.312,49.424c0,8.28-1.144,17.36-4.16,27.528l-12.048,43.336
		c-1.128,4.528-1.888,8.296-1.888,11.696c0,7.52,3.016,11.296,8.672,11.296c5.64,0,12.816-4.144,21.096-27.112l16.56,6.408
		c-7.168,25.112-18.592,39.464-32.92,45.36L408,407.992C501.328,314.672,501.328,163.328,408,70z"/>
	<path style="fill:#E51757;" d="M287.592,215.304c-17.656,0-29.296,12.632-35.344,36.944l43.72,43.704l12.328-44.128
		c1.512-4.888,1.872-9.4,1.872-13.544C310.168,223.96,301.528,215.304,287.592,215.304z"/>
</g>
<path style="fill:#FF6494;" d="M14,253C14,121.016,121.016,14,253,14c62.44,0,119.248,23.968,161.832,63.168
	C371.16,29.744,308.56,0,239,0C107.016,0,0,107.016,0,239c0,69.552,29.752,132.152,77.168,175.832C37.968,372.248,14,315.432,14,253
	z"/>
<path style="fill:#C90E52;" d="M386.672,426.832L245.28,285.44l-1.472,1.552L228.08,351h-42.184l7.576-31.304
	c-12.408,20.376-29.624,32.536-50.856,32.536c-12.184,0-21.2-3.648-27.424-9.536l-0.096-0.072L250.28,477.776
	C301.672,475.384,348.784,456.672,386.672,426.832z"/>
<path style="fill:#AD074B;" d="M381.312,303.184c-9.784,34.176-27.472,48.456-49.656,48.456c-26,0-38.424-15.432-38.424-36.528
	c0-6.024,0.752-12.432,2.64-18.832l12.424-44.448c1.512-4.888,1.872-9.4,1.872-13.544c0-2.608-0.376-4.952-0.936-7.168
	l-14.952-14.952c-2.08-0.496-4.264-0.848-6.688-0.848c-17.72,0-29.392,12.704-35.408,37.184l-20.56,88.256l112.768,112.776
	c40.488-19.928,74.512-50.976,98.096-89.168L381.312,303.184z"/>
<g>
	<path style="fill:#C90E52;" d="M274.296,196.168l-12.112-12.112l-0.544,1.432l-7.952,36.392
		C258.672,212.56,265.888,203.448,274.296,196.168z"/>
	<path style="fill:#C90E52;" d="M343.704,323.776c5.64,0,12.816-4.152,21.096-27.12l16.28,6.296l-35.016-35.016L336.92,300.8
		c-1.128,4.528-1.888,8.28-1.888,11.68C335.032,320.008,338.048,323.776,343.704,323.776z"/>
</g>
<g>
	<path style="fill:#AD074B;" d="M155.408,323.824c3.36,0.752,30.128,0.216,44.704-32.168l16.816-69.72l-5.76-6.936h-22.64
		l4.64-16.816l-15.576-14.992l-0.392,0.68L149,295.92c-1.872,7.168-2.64,13.184-2.64,17.328
		C146.36,320.4,149.888,322.568,155.408,323.824z"/>
	<path style="fill:#AD074B;" d="M311.184,418.592c-11.984-6-17.952-89.056-17.952-103.488c0-4.512,0.608-9.264,1.624-14.056
		l-43.84-42.944L228.08,351h-42.184l7.576-31.304c-12.264,20.152-29.264,32.208-50.168,32.488"/>
</g>
<g>
</g>
<g>
</g>
<g>
</g>
<g>
</g>
<g>
</g>
<g>
</g>
<g>
</g>
<g>
</g>
<g>
</g>
<g>
</g>
<g>
</g>
<g>
</g>
<g>
</g>
<g>
</g>
<g>
</g>
</svg>
