<?xml version="1.0" encoding="iso-8859-1"?>
<!-- Generator: Adobe Illustrator 19.0.0, SVG Export Plug-In . SVG Version: 6.00 Build 0)  -->
<svg version="1.1" id="Layer_1" xmlns="http://www.w3.org/2000/svg" xmlns:xlink="http://www.w3.org/1999/xlink" x="0px" y="0px"
	 viewBox="0 0 499.108 499.108" style="enable-background:new 0 0 499.108 499.108;" xml:space="preserve">
<g>
	<path style="fill:#303030;" d="M488.466,242.8l-46.792-21.696c-6.784-3.168-14.6-3.176-21.408-0.064l-160.08,73.184
		c-6.752,3.08-14.52,3.08-21.264,0L78.81,221.048c-6.8-3.12-14.624-3.104-21.408,0.064L10.61,242.808
		c-6.792,3.16-6.76,12.768,0.056,15.888l228.248,104.328c6.744,3.104,14.512,3.104,21.264,0L488.41,258.696
		C495.234,255.568,495.266,245.96,488.466,242.8z"/>
	<path style="fill:#303030;" d="M488.466,376.568l-46.792-21.728c-6.784-3.136-14.6-3.168-21.408-0.064l-160.08,73.2
		c-6.752,3.088-14.52,3.088-21.264,0L78.81,354.784c-6.8-3.104-14.624-3.072-21.408,0.064L10.61,376.576
		c-6.792,3.136-6.76,12.744,0.056,15.864l228.248,104.352c6.744,3.088,14.512,3.088,21.264,0l228.24-104.36
		C495.234,389.312,495.266,379.704,488.466,376.568z"/>
</g>
<g>
	<path style="fill:#5F6660;" d="M488.466,242.8l-15.24-7.064l-213.04,97.392c-6.752,3.088-14.52,3.088-21.264,0L25.866,235.736
		L10.618,242.8c-6.792,3.16-6.76,12.768,0.056,15.888l228.248,104.328c6.744,3.104,14.512,3.104,21.264,0l228.232-104.328
		C495.234,255.568,495.266,245.96,488.466,242.8z"/>
	<path style="fill:#5F6660;" d="M488.466,376.568l-15.24-7.088l-213.04,97.4c-6.752,3.104-14.52,3.104-21.264,0l-213.064-97.4
		l-15.24,7.088c-6.792,3.136-6.76,12.744,0.056,15.864l228.248,104.352c6.744,3.088,14.512,3.088,21.264,0l228.232-104.352
		C495.234,389.312,495.266,379.704,488.466,376.568z"/>
</g>
<path style="fill:#303030;" d="M488.466,107.872L261.986,2.736c-7.888-3.648-16.976-3.648-24.864,0L10.634,107.872
	c-6.808,3.152-6.776,12.76,0.04,15.888l228.232,104.328c6.752,3.096,14.52,3.096,21.272,0l228.24-104.328
	C495.234,120.632,495.258,111.024,488.466,107.872z"/>
<path style="fill:#3F4240;" d="M488.466,107.872L261.986,2.736c-7.888-3.648-16.976-3.648-24.864,0L10.634,107.872
	c-6.808,3.152-6.776,12.76,0.04,15.888l228.232,104.328c6.752,3.096,14.52,3.096,21.272,0l228.24-104.328
	C495.234,120.632,495.258,111.024,488.466,107.872z"/>
<path style="fill:#303030;" d="M488.466,107.872L262.09,2.736c-4.016-1.848-4.544-2.744-12.544-2.712v230.368
	c0,0.032,7.296-0.728,10.736-2.296l228.192-104.328C495.29,120.632,495.258,111.024,488.466,107.872z"/>
<path style="fill:#5F6660;" d="M488.466,107.872l-15.224-7.072l-213.064,97.408c-6.752,3.096-14.52,3.096-21.272,0L25.85,100.8
	l-15.216,7.072c-6.808,3.152-6.776,12.76,0.04,15.888l228.232,104.328c6.752,3.096,14.52,3.096,21.272,0l228.24-104.328
	C495.234,120.632,495.258,111.024,488.466,107.872z"/>
<g>
</g>
<g>
</g>
<g>
</g>
<g>
</g>
<g>
</g>
<g>
</g>
<g>
</g>
<g>
</g>
<g>
</g>
<g>
</g>
<g>
</g>
<g>
</g>
<g>
</g>
<g>
</g>
<g>
</g>
</svg>
