<?xml version="1.0" encoding="iso-8859-1"?>
<!-- Generator: Adobe Illustrator 19.0.0, SVG Export Plug-In . SVG Version: 6.00 Build 0)  -->
<svg version="1.1" id="Layer_1" xmlns="http://www.w3.org/2000/svg" xmlns:xlink="http://www.w3.org/1999/xlink" x="0px" y="0px"
	 viewBox="0 0 502.069 502.069" style="enable-background:new 0 0 502.069 502.069;" xml:space="preserve">
<path id="SVGCleanerId_0" style="fill:#F17250;" d="M395.238,347.909c-27.904,52.104-82.28,87.464-144.776,87.464
	c-90.952,0-164.68-74.88-164.68-167.264c0-69.712,41.976-129.456,101.664-154.584c21.448-28.088,53.184-55.2,112.608-66.328
	c5.552-3.104-32.296-10.072-49.72-10.072C124.79,37.117,23.038,141.197,23.038,269.581c0,128.408,101.752,232.488,227.288,232.488
	s227.296-104.08,227.28-233.304C460.286,304.141,434.054,332.837,395.238,347.909z"/>
<g>
	<path id="SVGCleanerId_0_1_" style="fill:#F17250;" d="M395.238,347.909c-27.904,52.104-82.28,87.464-144.776,87.464
		c-90.952,0-164.68-74.88-164.68-167.264c0-69.712,41.976-129.456,101.664-154.584c21.448-28.088,53.184-55.2,112.608-66.328
		c5.552-3.104-32.296-10.072-49.72-10.072C124.79,37.117,23.038,141.197,23.038,269.581c0,128.408,101.752,232.488,227.288,232.488
		s227.296-104.08,227.28-233.304C460.286,304.141,434.054,332.837,395.238,347.909z"/>
</g>
<path style="fill:#E2573B;" d="M458.03,2.789c0,0-13.008,30.072-145.456,65.44c-178.512,50.96-112.736,197.664-96.872,210.896
	c115.744-16.92,191.696-129.168,191.696-129.168c3.376-4.616,4.728-3.864,2.744,1.616c0,0-26.616,107.232-179.232,140.28
	c-53.608,11.608-71.944,46.72-71.944,46.72l12.456,18.4c37.36-35.384,87.176-38.216,87.176-38.216
	c296.128,80.68,208.24-313.776,208.24-313.776C465.702-0.739,462.086-1.619,458.03,2.789z"/>
<path style="fill:#F17250;" d="M464.91,0.917c-1.704-1.592-4.176-1.056-6.88,1.872c0,0-13.008,30.072-145.456,65.44
	c-178.512,50.96-112.736,197.664-96.872,210.896c115.744-16.92,191.696-129.168,191.696-129.168
	c3.376-4.616,4.728-3.864,2.744,1.616"/>
<path style="fill:#E2573B;" d="M390.398,356.285c-29.064,47.464-80.856,79.088-139.936,79.088
	c-90.952,0-164.68-74.88-164.68-167.264c0-69.712,41.976-129.456,101.664-154.584c21.2-27.76,52.504-54.544,110.608-65.904
	c-3.264-1.984-6.584-3.88-9.96-5.728c-11.376-2.52-27.856-4.776-37.76-4.776c-125.544,0-227.296,104.08-227.296,232.464
	c0,104.4,67.264,192.712,159.88,222.088C274.446,484.717,352.246,431.389,390.398,356.285z"/>
<g>
	<path style="fill:#D33F26;" d="M252.774,435.293c2.512,0,5-0.136,7.496-0.248C257.79,435.197,255.294,435.261,252.774,435.293z"/>
	<path style="fill:#D33F26;" d="M241.494,434.909c0.104,0.008,0.224,0.008,0.328,0.016
		C241.71,434.925,241.598,434.917,241.494,434.909z"/>
</g>
<path style="fill:#B72916;" d="M85.782,268.109c0-69.712,41.976-129.456,101.664-154.584c21.2-27.76,52.504-54.544,110.608-65.904
	c-3.264-1.984-6.584-3.88-9.96-5.728c-11.376-2.52-27.856-4.776-37.76-4.776c-125.544,0-227.296,104.08-227.296,232.464
	c0,9.8,0.776,19.392,1.928,28.864c52.312,65.832,114.784,111.328,174.912,128.808C133.694,405.573,85.782,342.557,85.782,268.109z"
	/>
<path style="fill:#D33F26;" d="M261.51,435.005c16.736-0.896,32.888-4.44,48.128-10.848
	C294.542,430.077,278.39,433.869,261.51,435.005z"/>
<g>
</g>
<g>
</g>
<g>
</g>
<g>
</g>
<g>
</g>
<g>
</g>
<g>
</g>
<g>
</g>
<g>
</g>
<g>
</g>
<g>
</g>
<g>
</g>
<g>
</g>
<g>
</g>
<g>
</g>
</svg>
