<?xml version="1.0" encoding="iso-8859-1"?>
<!-- Generator: Adobe Illustrator 19.0.0, SVG Export Plug-In . SVG Version: 6.00 Build 0)  -->
<svg version="1.1" id="Layer_1" xmlns="http://www.w3.org/2000/svg" xmlns:xlink="http://www.w3.org/1999/xlink" x="0px" y="0px"
	 viewBox="0 0 496.889 496.889" style="enable-background:new 0 0 496.889 496.889;" xml:space="preserve">
<path style="fill:#6D8599;" d="M366.676,396.72c-9.064,4.408-25.568,8.264-38.504,8.592c-38.984,1.064-46.064-28-46.064-49.064V200
	h96v-72h-96V0h-72.616c-1.184,0-5.232,0.6-5.52,3.272c-4.176,38.816-17.864,106.48-97.864,133.712V200h56v163.92
	c0,55.688,38.856,134.816,144.984,132.936c35.816-0.624,74.896-15.936,83.688-29.16L366.676,396.72z"/>
<path style="fill:#32455C;" d="M366.676,396.72c-9.064,4.408-25.568,8.264-38.504,8.592c-38.984,1.064-46.064-28-46.064-49.064V200
	h96v-72h-96V0h-72.616c-1.184,0-5.232,0.6-5.52,3.272c-5.952,55.2,6.136,112.992-97.864,133.712V200h65.776l-9.776,161.432
	c0,55.688,37.512,136.984,143.632,135.112c35.816-0.624,75.576-15.776,84.368-29L366.676,396.72z"/>
<path style="fill:#1B2B3A;" d="M390.108,467.704l-23.432-70.984c-9.064,4.408-25.568,8.264-38.504,8.592
	c-38.984,1.064-46.064-28-46.064-49.064V200h-1.28l0.92,0.224l-119.64,121.648v42.048c0,26.672,7.92,58.712,29.184,84.672
	l17.096,17.76c23.056,18.8,54.832,31.264,97.688,30.504C341.892,496.232,381.316,480.92,390.108,467.704z"/>
<g>
</g>
<g>
</g>
<g>
</g>
<g>
</g>
<g>
</g>
<g>
</g>
<g>
</g>
<g>
</g>
<g>
</g>
<g>
</g>
<g>
</g>
<g>
</g>
<g>
</g>
<g>
</g>
<g>
</g>
</svg>
