<?xml version="1.0" encoding="iso-8859-1"?>
<!-- Generator: Adobe Illustrator 19.0.0, SVG Export Plug-In . SVG Version: 6.00 Build 0)  -->
<svg version="1.1" id="Layer_1" xmlns="http://www.w3.org/2000/svg" xmlns:xlink="http://www.w3.org/1999/xlink" x="0px" y="0px"
	 viewBox="0 0 488.569 488.569" style="enable-background:new 0 0 488.569 488.569;" xml:space="preserve">
<path style="fill:#3AD69E;" d="M439.453,202c10.904-24.424,16.832-56.088,16.832-83.856C456.285,43.464,418.501,0,349.253,0
	c-71.176,0-112.832,55.168-112.832,127.912c0,72.08,33.408,133.96,88.504,162.144c-23.168,46.72-52.664,89.176-83.4,120.2
	c-55.8-68-106.224-158.456-126.928-334.456H32.285c38.032,296,151.36,387.432,181.328,405.464
	c16.952,10.248,31.552,9.12,47.032,0.312c24.344-13.952,95.416-87.896,135.896-174.168c16.992-0.048,39.744-2.336,55.744-6.976
	v-58.048c-8,2.904-22.504,4.192-33.344,4.192c-61.016,0-107-42.984-107-117.688c0-36.616,14.528-55.664,34.392-55.664
	c18.912,0,31.744,17.096,31.744,51.76c0,19.728-5.128,41.312-8.984,54.104C369.093,179.088,388.021,212.152,439.453,202z"/>
<path style="fill:#2DB487;" d="M312.941,128.888c0-36.616,14.032-55.664,33.888-55.664c18.912,0,31.496,17.096,31.496,51.76
	c0,19.728-5.248,41.312-9.112,54.104c0,0,18.808,33.064,70.232,22.912c10.904-24.424,16.832-56.088,16.832-83.856
	C456.277,43.464,418.493,0,349.245,0c-71.176,0-112.832,55.168-112.832,127.912c0,72.08,33.408,133.96,88.504,162.144
	c-20.216,40.816-45.288,77.368-71.808,106.656c-19.832,25.96-44.728,46.712-70.8,59.536c12.928,12.592,24.696,21.04,31.28,25.008
	c16.952,10.248,31.552,9.12,47.032,0.312c24.344-13.952,95.416-87.896,135.896-174.168c17.016-0.04,39.768-2.328,55.768-6.968
	v-58.048c-8,2.904-22.504,4.192-33.344,4.192C357.925,246.576,312.941,203.592,312.941,128.888z"/>
<path style="fill:#3AD69E;" d="M452.285,300.432v-58.048c-8,2.904-22.504,4.192-33.344,4.192c-61.016,0-106-42.984-106-117.688
	c0-36.616,13.528-55.664,33.392-55.664c18.912,0,31.744,17.096,31.744,51.76c0,19.728-5.128,41.312-8.984,54.104
	c0,0,18.864,33.064,70.296,22.912c10.904-24.424,16.864-56.088,16.864-83.856C456.253,43.464,418.485,0,349.237,0
	c-71.176,0-112.824,55.168-112.824,127.912c0,71.688,33.088,133.272,87.664,161.664c6.392,2.168,12.872,4.176,19.528,5.96
	c25.864,6.92,49.544,10.264,74.272,10.488C429.557,305,444.285,303.256,452.285,300.432z"/>
<path style="fill:#2DB487;" d="M428.677,31c-53.64-37.464-100.928,21.584-107.792,59.04c6.04-11.104,15.12-16.816,25.944-16.816
	c18.912,0,31.496,17.096,31.496,51.76c0,19.728-5.248,41.312-9.112,54.104c0,0,18.808,33.064,70.232,22.912
	c10.904-24.424,16.832-56.088,16.832-83.856C456.285,80.76,446.821,51.2,428.677,31z"/>
<g>
	<path style="fill:#159B81;" d="M324.869,83.792c23.48-29.624,76.2-51.872,120.848-25.296C441.341,48.008,435.669,38.792,428.669,31
		c-53.64-37.464-100.928,21.584-107.792,59.04c1.328-2.456,2.84-4.6,4.464-6.536C325.197,83.616,325.045,83.688,324.869,83.792z"/>
	<path style="fill:#159B81;" d="M343.613,295.536c-6.656-1.784-12.288-3.312-18.68-5.48c-25.528-13.264-48.072-37.208-62.992-61.216
		l0,0c17.12,29.752,37.08,47.952,62.992,61.216c-4.952,10.008-10.216,19.152-15.712,28.6c7.04,0.792,14.352,1.536,21.832,1.536
		c25.896,0,49.44-4.848,67.376-13.008c0.032-0.096,0.08-0.096,0.112-0.176c0.144,0,0.296,0.032,0.416,0.024
		c1.264-0.568,2.576-1.112,3.784-1.728C383.373,304.024,363.549,300.88,343.613,295.536z"/>
</g>
<g>
</g>
<g>
</g>
<g>
</g>
<g>
</g>
<g>
</g>
<g>
</g>
<g>
</g>
<g>
</g>
<g>
</g>
<g>
</g>
<g>
</g>
<g>
</g>
<g>
</g>
<g>
</g>
<g>
</g>
</svg>
